Coordinates
version=1
nRows=11
nColumns=40
inDegrees=yes

Units are S.I. units (second, meters, Newtons, ...)
If the header above contains a line with 'inDegrees', this indicates whether rotational values are in degrees (yes) or radians (no).

endheader
time	pelvis_tilt	pelvis_list	pelvis_rotation	pelvis_tx	pelvis_ty	pelvis_tz	hip_flexion_r	hip_adduction_r	hip_rotation_r	knee_angle_r	knee_angle_r_beta	ankle_angle_r	subtalar_angle_r	mtp_angle_r	hip_flexion_l	hip_adduction_l	hip_rotation_l	knee_angle_l	knee_angle_l_beta	ankle_angle_l	subtalar_angle_l	mtp_angle_l	lumbar_extension	lumbar_bending	lumbar_rotation	arm_flex_r	arm_add_r	arm_rot_r	elbow_flex_r	pro_sup_r	wrist_flex_r	wrist_dev_r	arm_flex_l	arm_add_l	arm_rot_l	elbow_flex_l	pro_sup_l	wrist_flex_l	wrist_dev_l
      5.13000000	    -10.05155361	      2.73942312	     -2.05858787	     -0.15766233	      1.31060034	     -0.88315227	      4.35611835	     -4.03813316	    -25.47859352	      1.74584452	      0.03047074	    -34.75803338	      0.00000000	      0.00000000	      5.18571623	      0.57161339	    -20.33095280	      4.54985640	      0.07940997	    -39.38325230	      0.00000000	      0.00000000	     -4.24860896	     -2.53802523	     -3.17116807	    -42.91943227	    -36.04366076	     -0.24842554	    119.50584189	     87.75364437	      0.00000000	      0.00000000	    -51.04619080	    -28.90480884	     -6.41439637	    117.80484036	     88.16166412	      0.00000000	      0.00000000
      5.13500000	    -10.25284332	      3.01008466	     -1.94300803	     -0.15666093	      1.31770105	     -0.88305480	      4.52627778	     -4.48448348	    -25.05951580	      1.91948928	      0.03350141	    -35.13975424	      0.00000000	      0.00000000	      5.26528568	      0.79121756	    -19.59731354	      4.87635630	      0.08510847	    -39.39512308	      0.00000000	      0.00000000	     -3.72507142	     -2.88935483	     -3.23228949	    -43.01629140	    -35.64782801	     -0.21732282	    119.01418445	     87.75633402	      0.00000000	      0.00000000	    -50.88658132	    -28.99187889	     -6.43546959	    117.71708622	     88.16240503	      0.00000000	      0.00000000
      5.14000000	    -10.39901436	      3.17354383	     -1.75250680	     -0.15564795	      1.32446416	     -0.88292575	      4.61348618	     -4.83042047	    -24.65928287	      2.09963120	      0.03664548	    -35.35430900	      0.00000000	      0.00000000	      5.23233742	      0.84389343	    -18.55166977	      5.05615565	      0.08824656	    -39.39566576	      0.00000000	      0.00000000	     -3.26819077	     -3.14437817	     -3.34344254	    -43.12425841	    -35.31667065	     -0.13032001	    118.70962743	     87.76623313	      0.00000000	      0.00000000	    -50.75359303	    -29.15794134	     -6.38064951	    117.71334635	     88.16450564	      0.00000000	      0.00000000
      5.14500000	    -10.75391392	      3.09193959	     -1.54855489	     -0.15449171	      1.33045946	     -0.88223756	      4.86403530	     -4.86802242	    -24.38021879	      2.18925434	      0.03820970	    -35.43111122	      0.00000000	      0.00000000	      5.33046882	      0.53295181	    -17.32378892	      5.09872425	      0.08898953	    -39.39730740	      0.00000000	      0.00000000	     -2.56522515	     -3.18748588	     -3.42998015	    -43.31874175	    -34.96382307	     -0.02656817	    118.38538304	     87.77234905	      0.00000000	      0.00000000	    -50.75564377	    -29.32095484	     -6.41315944	    117.73732447	     88.17311303	      0.00000000	      0.00000000
      5.15000000	    -10.39823419	      3.34152566	     -1.67701908	     -0.15261552	      1.33705406	     -0.88174019	      4.34118597	     -5.31682147	    -24.06344486	      2.19296849	      0.03827452	    -35.43250829	      0.00000000	      0.00000000	      4.45575153	      0.61757770	    -16.86318220	      4.87774480	      0.08513271	    -39.40932533	      0.00000000	      0.00000000	     -2.58314211	     -3.54161042	     -3.31243023	    -43.42669803	    -34.81773376	      0.13186003	    118.28179613	     87.78056652	      0.00000000	      0.00000000	    -50.70333794	    -29.46487988	     -6.38023377	    117.72748243	     88.16967958	      0.00000000	      0.00000000
      5.15500000	    -10.43168072	      3.32473511	     -1.71682441	     -0.15074929	      1.34256246	     -0.88106744	      4.22378424	     -5.48134809	    -24.05603973	      2.19103319	      0.03824074	    -35.41960594	      0.00000000	      0.00000000	      4.12789264	      0.30229497	    -16.84953207	      4.91141307	      0.08572033	    -39.42045489	      0.00000000	      0.00000000	     -2.14445560	     -3.62896366	     -3.35338124	    -43.48538663	    -34.76378051	      0.16081067	    118.27988196	     87.78385313	      0.00000000	      0.00000000	    -50.72731500	    -29.45927671	     -6.38686937	    117.72631188	     88.16948988	      0.00000000	      0.00000000
      5.16000000	    -10.14921758	      3.08466356	     -1.78764149	     -0.14951813	      1.34825575	     -0.88011400	      3.64456141	     -5.31839514	    -23.87207093	      1.88335773	      0.03287079	    -35.04685247	      0.00000000	      0.00000000	      3.35821940	     -0.27094307	    -16.77743124	      4.61671831	      0.08057694	    -39.41386809	      0.00000000	      0.00000000	     -2.19069139	     -3.50329944	     -3.30699652	    -43.49150215	    -34.73478257	      0.42872855	    118.13552991	     87.79533860	      0.00000000	      0.00000000	    -50.80776195	    -29.69005892	     -6.37102076	    117.79781082	     88.17658022	      0.00000000	      0.00000000
      5.16500000	    -10.16040069	      3.07447510	     -1.87018167	     -0.14818686	      1.35322724	     -0.87955594	      3.52609594	     -5.53391279	    -23.89278229	      1.84399367	      0.03218376	    -35.00836034	      0.00000000	      0.00000000	      3.04122920	     -0.66240617	    -16.82888105	      4.61869771	      0.08061148	    -39.40046975	      0.00000000	      0.00000000	     -1.84446453	     -3.59770817	     -3.31395643	    -43.50490625	    -34.70134996	      0.44244022	    118.14188037	     87.79580110	      0.00000000	      0.00000000	    -50.83017457	    -29.68355749	     -6.36288432	    117.78758809	     88.17656790	      0.00000000	      0.00000000
      5.17000000	     -9.81545481	      2.74961358	     -2.17942988	     -0.14638525	      1.35821954	     -0.87844679	      2.84276303	     -5.27731507	    -24.10260004	      1.46853995	      0.02563086	    -34.50146950	      0.00000000	      0.00000000	      2.05897049	     -1.34700794	    -18.03373523	      4.16150757	      0.07263201	    -39.38677574	      0.00000000	      0.00000000	     -1.86113880	     -3.35567829	     -3.12909159	    -43.44165799	    -34.80258841	      0.62473686	    118.09863505	     87.79741185	      0.00000000	      0.00000000	    -50.97397201	    -29.88391074	     -6.19981157	    117.69410846	     88.18067357	      0.00000000	      0.00000000
      5.17500000	     -9.36754090	      2.72899005	     -2.51627953	     -0.14482510	      1.36324566	     -0.87776658	      2.14509504	     -5.44383781	    -23.98335466	      1.24462538	      0.02172281	    -34.16213700	      0.00000000	      0.00000000	      1.16907073	     -1.72168846	    -19.90047395	      3.99673438	      0.06975617	    -39.39742548	      0.00000000	      0.00000000	     -2.00840167	     -3.41900726	     -2.96528602	    -43.29080886	    -34.92171741	      0.62784209	    118.18958221	     87.77387904	      0.00000000	      0.00000000	    -50.86504307	    -29.89099241	     -6.09002823	    117.65064759	     88.17523730	      0.00000000	      0.00000000
      5.18000000	     -9.18655625	      2.62168800	     -2.62308107	     -0.14346506	      1.36766148	     -0.87746307	      1.76613220	     -5.56975320	    -24.53088162	      1.18270666	      0.02064213	    -34.43839807	      0.00000000	      0.00000000	      0.55506529	     -2.16758279	    -20.95743818	      3.77212446	      0.06583599	    -39.38414066	      0.00000000	      0.00000000	     -1.86854252	     -3.36286042	     -2.99309079	    -43.19585855	    -34.95017551	      0.50855086	    118.20520647	     87.76636227	      0.00000000	      0.00000000	    -50.74661260	    -29.95567827	     -5.86161334	    117.44133244	     88.17647673	      0.00000000	      0.00000000
